<svg enable-background="new 0 0 30 30" viewBox="0 0 30 30" height="30" width="30" xmlns="http://www.w3.org/2000/svg"><path d="m23 14c-.733 0-1.414-.208-2.005-.554-.59.343-1.265.554-1.995.554-.732 0-1.409-.212-2-.556-.591.344-1.268.556-2 .556s-1.409-.212-2-.556c-.591.344-1.268.556-2 .556-.73 0-1.405-.211-1.995-.554-.591.346-1.272.554-2.005.554-.727 0-1.4-.21-1.988-.55-.592.347-1.278.55-2.012.55v11c0 1.105.895 2 2 2h12v-10h6v10h2c1.105 0 2-.895 2-2v-11c-.734 0-1.42-.203-2.012-.55-.588.34-1.261.55-1.988.55zm-10 9h-6v-6h6z" fill="#ffffff"/><path d="m26 6h-22v-1c0-1.105.895-2 2-2h18c1.105 0 2 .895 2 2z" fill="#ffffff"/><path d="m20 6h-3v4c0 1.105.895 2 2 2s2-.895 2-2z" fill="#ffffff"/><path d="m26 6h-3l2 4c0 1.105.895 2 2 2s2-.895 2-2z" fill="#ffffff"/><path d="m20 6h-3v4c0 1.105.895 2 2 2s2-.895 2-2z" fill="#ffffff"/><path d="m10 6h3v4c0 1.105-.895 2-2 2s-2-.895-2-2z" fill="#ffffff"/><path d="m4 6h3l-2 4c0 1.105-.895 2-2 2s-2-.895-2-2z" fill="#ffffff"/></svg>